<svg xmlns="http://www.w3.org/2000/svg" viewBox="0 0 64 64" role="img" aria-label="Sportacle">
  <rect width="64" height="64" rx="14" fill="#14171C"/>
  <g transform="translate(32 32)">
    <circle r="19" fill="#1E9B4B"/>
    <path d="M0 0 L0 -19 A19 19 0 0 1 16.45 -9.5 Z" fill="#FFC400"/>
    <path d="M0 0 L16.45 -9.5 A19 19 0 0 1 16.45 9.5 Z" fill="#ED2939"/>
    <path d="M0 0 L16.45 9.5 A19 19 0 0 1 0 19 Z" fill="#0A3478"/>
    <path d="M0 0 L0 19 A19 19 0 0 1 -16.45 9.5 Z" fill="#1E9B4B"/>
    <path d="M0 0 L-16.45 9.5 A19 19 0 0 1 -16.45 -9.5 Z" fill="#FFC400"/>
    <path d="M0 0 L-16.45 -9.5 A19 19 0 0 1 0 -19 Z" fill="#ED2939"/>
    <circle r="6.5" fill="#14171C"/>
  </g>
</svg>
